GIL06_free2_ik
nRows=3
nColumns=375

# SIMM Motion File Header:
name GIL06_free2_ik
datacolumns 375
datarows 3
otherdata 1
range 0.38333000 0.40000000
endheader
time	pelvis_tx	pelvis_ty	pelvis_tz	pelvis_tilt	pelvis_list	pelvis_rotation	hip_flexion_r	hip_adduction_r	hip_rotation_r	knee_angle_r	ankle_angle_r	hip_flexion_l	hip_adduction_l	hip_rotation_l	knee_angle_l	ankle_angle_l	lumbar_extension	lumbar_bending	lumbar_rotation	subtalar_angle_r	mtp_angle_r	subtalar_angle_l	mtp_angle_l	asis_r_px	asis_r_py	asis_r_pz	asis_l_px	asis_l_py	asis_l_pz	midasis_px	midasis_py	midasis_pz	psis_r_px	psis_r_py	psis_r_pz	psis_l_px	psis_l_py	psis_l_pz	hip_r_px	hip_r_py	hip_r_pz	hip_l_px	hip_l_py	hip_l_pz	midhip_px	midhip_py	midhip_pz	epicondLat_r_px	epicondLat_r_py	epicondLat_r_pz	epicondMed_r_px	epicondMed_r_py	epicondMed_r_pz	thighwand_r_px	thighwand_r_py	thighwand_r_pz	upperleg1_r_px	upperleg1_r_py	upperleg1_r_pz	upperleg2_r_px	upperleg2_r_py	upperleg2_r_pz	malleolusLat_r_px	malleolusLat_r_py	malleolusLat_r_pz	malleolusMedv_r_px	malleolusMedv_r_py	malleolusMedv_r_pz	shankwand_r_px	shankwand_r_py	shankwand_r_pz	lowerleg1_r_px	lowerleg1_r_py	lowerleg1_r_pz	knee_r_px	knee_r_py	knee_r_pz	ankle_r_px	ankle_r_py	ankle_r_pz	toe_r_px	toe_r_py	toe_r_pz	epicondLat_l_px	epicondLat_l_py	epicondLat_l_pz	epicondMed_l_px	epicondMed_l_py	epicondMed_l_pz	thighwand_l_px	thighwand_l_py	thighwand_l_pz	upperleg1_l_px	upperleg1_l_py	upperleg1_l_pz	upperleg2_l_px	upperleg2_l_py	upperleg2_l_pz	malleolusLat_l_px	malleolusLat_l_py	malleolusLat_l_pz	malleolusMedv_l_px	malleolusMedv_l_py	malleolusMedv_l_pz	shankwand_l_px	shankwand_l_py	shankwand_l_pz	lowerleg1_l_px	lowerleg1_l_py	lowerleg1_l_pz	knee_l_px	knee_l_py	knee_l_pz	ankle_l_px	ankle_l_py	ankle_l_pz	toe_l_px	toe_l_py	toe_l_pz	subclavicle_r_px	subclavicle_r_py	subclavicle_r_pz	subclavicle_l_px	subclavicle_l_py	subclavicle_l_pz	neck_px	neck_py	neck_pz	sternalnotch_px	sternalnotch_py	sternalnotch_pz	xyphoidprocess_px	xyphoidprocess_py	xyphoidprocess_pz	midhip_tx	midhip_ty	midhip_tz	hip_r_tx	hip_r_ty	hip_r_tz	hip_l_tx	hip_l_ty	hip_l_tz	knee_r_tx	knee_r_ty	knee_r_tz	knee_l_tx	knee_l_ty	knee_l_tz	ankle_r_tx	ankle_r_ty	ankle_r_tz	ankle_l_tx	ankle_l_ty	ankle_l_tz	midasis_tx	midasis_ty	midasis_tz	asis_r_tx	asis_r_ty	asis_r_tz	asis_l_tx	asis_l_ty	asis_l_tz	psis_r_tx	psis_r_ty	psis_r_tz	psis_l_tx	psis_l_ty	psis_l_tz	epicondLat_r_tx	epicondLat_r_ty	epicondLat_r_tz	epicondLat_l_tx	epicondLat_l_ty	epicondLat_l_tz	epicondMed_r_tx	epicondMed_r_ty	epicondMed_r_tz	epicondMed_l_tx	epicondMed_l_ty	epicondMed_l_tz	malleolusLat_r_tx	malleolusLat_r_ty	malleolusLat_r_tz	malleolusLat_l_tx	malleolusLat_l_ty	malleolusLat_l_tz	malleolusMedv_r_tx	malleolusMedv_r_ty	malleolusMedv_r_tz	malleolusMedv_l_tx	malleolusMedv_l_ty	malleolusMedv_l_tz	neck_tx	neck_ty	neck_tz	subclavicle_r_tx	subclavicle_r_ty	subclavicle_r_tz	subclavicle_l_tx	subclavicle_l_ty	subclavicle_l_tz	sternalnotch_tx	sternalnotch_ty	sternalnotch_tz	xyphoidprocess_tx	xyphoidprocess_ty	xyphoidprocess_tz	thighwand_r_tx	thighwand_r_ty	thighwand_r_tz	thighwand_l_tx	thighwand_l_ty	thighwand_l_tz	upperleg1_r_tx	upperleg1_r_ty	upperleg1_r_tz	upperleg1_l_tx	upperleg1_l_ty	upperleg1_l_tz	upperleg2_r_tx	upperleg2_r_ty	upperleg2_r_tz	upperleg2_l_tx	upperleg2_l_ty	upperleg2_l_tz	shankwand_r_tx	shankwand_r_ty	shankwand_r_tz	shankwand_l_tx	shankwand_l_ty	shankwand_l_tz	lowerleg1_r_tx	lowerleg1_r_ty	lowerleg1_r_tz	lowerleg1_l_tx	lowerleg1_l_ty	lowerleg1_l_tz	toe_r_tx	toe_r_ty	toe_r_tz	toe_l_tx	toe_l_ty	toe_l_tz	ground_force_vx	ground_force_vy	ground_force_vz	ground_force_px	ground_force_py	ground_force_pz	ground_force_vx	ground_force_vy	ground_force_vz	ground_force_px	ground_force_py	ground_force_pz	ground_torque_x	ground_torque_y	ground_torque_z	ground_torque_x	ground_torque_y	ground_torque_z	ground_marker_px	ground_marker_py	ground_marker_pz	ground_marker_px	ground_marker_py	ground_marker_pz	ground_marker_px	ground_marker_py	ground_marker_pz	ground_marker_px	ground_marker_py	ground_marker_pz	ground_marker_px	ground_marker_py	ground_marker_pz	ground_marker_px	ground_marker_py	ground_marker_pz	ground_marker_px	ground_marker_py	ground_marker_pz	ground_marker_px	ground_marker_py	ground_marker_pz	ground_marker_px	ground_marker_py	ground_marker_pz	ground_marker_px	ground_marker_py	ground_marker_pz	ground_marker_px	ground_marker_py	ground_marker_pz	ground_marker_px	ground_marker_py	ground_marker_pz	ground_marker_px	ground_marker_py	ground_marker_pz	ground_marker_px	ground_marker_py	ground_marker_pz	ground_marker_px	ground_marker_py	ground_marker_pz	ground_marker_px	ground_marker_py	ground_marker_pz	ground_marker_px	ground_marker_py	ground_marker_pz	ground_marker_px	ground_marker_py	ground_marker_pz	ground_marker_px	ground_marker_py	ground_marker_pz	ground_marker_px	ground_marker_py	ground_marker_pz	ground_marker_px	ground_marker_py	ground_marker_pz	ground_marker_px	ground_marker_py	ground_marker_pz	ground_marker_px	ground_marker_py	ground_marker_pz	ground_marker_px	ground_marker_py	ground_marker_pz	ground_marker_px	ground_marker_py	ground_marker_pz	ground_marker_px	ground_marker_py	ground_marker_pz	ground_marker_px	ground_marker_py	ground_marker_pz	ground_marker_px	ground_marker_py	ground_marker_pz	ground_marker_px	ground_marker_py	ground_marker_pz	ground_marker_px	ground_marker_py	ground_marker_pz	ground_marker_px	ground_marker_py	ground_marker_pz	ground_marker_px	ground_marker_py	ground_marker_pz	ground_marker_px	ground_marker_py	ground_marker_pz	ground_marker_px	ground_marker_py	ground_marker_pz	ground_marker_px	ground_marker_py	ground_marker_pz	ground_marker_px	ground_marker_py	ground_marker_pz	ground_marker_px	ground_marker_py	ground_marker_pz
      0.38333000	      0.38099056	      0.83741110	     -0.29216141	     -5.10728757	      0.78827975	     -0.22758223	     32.24184176	     -0.77168843	     10.42279227	    -31.58964667	      1.13174832	     -2.10176843	      5.42737258	     -1.36173188	     -0.32241648	      3.86366809	      7.18715810	     -1.72044825	      5.16772051	      0.00000000	      0.00000000	      0.00000000	      0.00000000	      0.43635737	      0.81937398	     -0.17507983	      0.43621129	      0.82192057	     -0.42098724	      0.39438605	      0.83621313	     -0.29210800	      0.20521906	      0.92819124	     -0.26298789	      0.20082543	      0.92747028	     -0.31805215	      0.30727562	      0.77914942	     -0.21309902	      0.30810679	      0.78129103	     -0.37351049	      0.30769121	      0.78022022	     -0.29330475	      0.49198593	      0.44257657	     -0.15313511	      0.44914932	      0.43046971	     -0.29125769	      0.55968857	      0.65098785	     -0.18251728	      0.51252873	      0.65199098	     -0.19512939	      0.52074529	      0.57461722	     -0.19749680	      0.44663906	      0.08164206	     -0.12912979	      0.45223073	      0.08137109	     -0.20566565	      0.54453288	      0.21970469	     -0.17459466	      0.49804516	      0.22800908	     -0.18161273	      0.47661986	      0.45060282	     -0.21179565	      0.45041329	      0.08476986	     -0.17768117	      0.55952536	      0.05582328	     -0.17102639	      0.25333177	      0.40448388	     -0.40993865	      0.25895147	      0.40184276	     -0.26145378	      0.45725405	      0.56096523	     -0.37916197	      0.41205234	      0.58219141	     -0.38428497	      0.38573273	      0.51380126	     -0.37487634	      0.18441998	      0.04324573	     -0.35407304	      0.20872746	      0.06292751	     -0.28048764	      0.18038069	      0.15068901	     -0.42701748	      0.18930796	      0.16507657	     -0.38115191	      0.25804843	      0.41946009	     -0.34383820	      0.20979896	      0.05549679	     -0.31405497	      0.30387586	      0.02490258	     -0.33766523	      0.33781223	      1.28121328	     -0.25008956	      0.33937164	      1.28405021	     -0.33195608	      0.19762150	      1.32168248	     -0.29017742	      0.32349670	      1.27427253	     -0.30378364	      0.38947857	      1.21293925	     -0.30345396	      0.30201300	      0.77314900	     -0.28629700	      0.28267900	      0.77663800	     -0.20714400	      0.28380500	      0.77602200	     -0.36276800	      0.47191900	      0.42313600	     -0.19165500	      0.24539700	      0.42552600	     -0.32998700	      0.44493400	      0.07650600	     -0.20638400	      0.20385800	      0.05949500	     -0.30870000	      0.41134500	      0.84790100	     -0.28431300	      0.41045200	      0.84839000	     -0.16081800	      0.41223900	      0.84741100	     -0.40780700	      0.16959400	      0.91873700	     -0.24936300	      0.16720500	      0.92043400	     -0.30448600	      0.48211700	      0.43167400	     -0.12140300	      0.24353400	      0.41907200	     -0.40117100	      0.47752800	      0.42305300	     -0.25633700	      0.23904700	      0.42364700	     -0.24938200	      0.43322300	      0.07586000	     -0.16971400	      0.18664900	      0.05938100	     -0.34425400	      0.45782600	      0.08604000	     -0.24188400	      0.19878000	      0.07968800	     -0.26808600	      0.20660800	      1.34116600	     -0.29158800	      0.33398600	      1.27835200	     -0.24936500	      0.33591400	      1.28143500	     -0.32997000	      0.31876300	      1.27430500	     -0.30241900	      0.37298800	      1.20252900	     -0.30269400	      0.55074900	      0.65252900	     -0.14364700	      0.44841100	      0.57924700	     -0.35344000	      0.50715400	      0.65081200	     -0.15811500	      0.40360500	      0.59988000	     -0.36141500	      0.52522300	      0.57481800	     -0.15960400	      0.37588600	      0.53348800	     -0.35397300	      0.53970100	      0.21088500	     -0.16634700	      0.19190700	      0.16139300	     -0.41808500	      0.49840800	      0.22279500	     -0.18221600	      0.19322400	      0.17709800	     -0.37295000	      0.54635100	      0.05889000	     -0.18335700	      0.30204300	      0.04633100	     -0.31976400	      0.00000000	      0.00000000	      0.00000000	      0.68400275	      0.00000000	     -0.19960277	      7.25613687	    709.58409130	     28.22946502	      0.27465332	      0.00000000	     -0.32342761	      0.00000000	      0.00000000	      0.00000000	      0.00000000	     -4.98961035	      0.00000000	      0.30201280	      0.77314878	     -0.28629676	      0.28267920	      0.77663827	     -0.20714374	      0.28380501	      0.77602160	     -0.36276758	      0.47191900	      0.42313635	     -0.19165502	      0.24539655	      0.42552564	     -0.32998675	      0.44493404	      0.07650623	     -0.20638365	      0.20385800	      0.05949530	     -0.30869976	      0.41134518	      0.84790069	     -0.28431255	      0.41045180	      0.84839004	     -0.16081832	      0.41223857	      0.84741133	     -0.40780675	      0.16959430	      0.91873735	     -0.24936268	      0.16720520	      0.92043376	     -0.30448580	      0.48211730	      0.43167388	     -0.12140296	      0.24353363	      0.41907218	     -0.40117052	      0.47752759	      0.42305291	     -0.25633687	      0.23904696	      0.42364702	     -0.24938162	      0.43322298	      0.07585979	     -0.16971374	      0.18664925	      0.05938052	     -0.34425387	      0.45782590	      0.08603963	     -0.24188434	      0.19878012	      0.07968778	     -0.26808590	      0.20660815	      1.34116614	     -0.29158783	      0.33398575	      1.27835250	     -0.24936523	      0.33591411	      1.28143489	     -0.32996961	      0.31876287	      1.27430511	     -0.30241933	      0.37298751	      1.20252895	     -0.30269408	      0.55074859	      0.65252870	     -0.14364684	      0.44841135	      0.57924670	     -0.35344014	      0.50715351	      0.65081155	     -0.15811487	      0.40360457	      0.59987998	     -0.36141467	      0.52522278	      0.57481825	     -0.15960413	      0.37588587	      0.53348762	     -0.35397252	      0.53970051	      0.21088462	     -0.16634673	      0.19190744	      0.16139346	     -0.41808498	      0.49840832	      0.22279528	     -0.18221582	      0.19322442	      0.17709835	     -0.37294993	      0.54635072	      0.05888992	     -0.18335745	      0.30204305	      0.04633109	     -0.31976435
      0.39167000	      0.38957814	      0.83626987	     -0.29163587	     -5.22919584	      0.70682523	      0.12769445	     32.30478282	     -0.69096845	     11.13582657	    -28.50302373	      0.27768976	     -2.55920160	      5.36482107	     -1.11278551	     -0.51901961	      4.49566572	      7.31164543	     -1.84799010	      5.47946906	      0.00000000	      0.00000000	      0.00000000	      0.00000000	      0.44564493	      0.81821895	     -0.17489000	      0.44395388	      0.82055659	     -0.42079372	      0.40297122	      0.83504450	     -0.29166584	      0.21417997	      0.92743485	     -0.26143361	      0.20943784	      0.92667604	     -0.31646845	      0.31624413	      0.77822669	     -0.21206019	      0.31606844	      0.78023009	     -0.37247550	      0.31615628	      0.77922839	     -0.29226784	      0.50169566	      0.44178747	     -0.15365440	      0.45636725	      0.42899680	     -0.29091740	      0.56904926	      0.64997249	     -0.18535151	      0.52167087	      0.65095694	     -0.19711757	      0.52977248	      0.57356350	     -0.19922372	      0.47580275	      0.07949733	     -0.13009792	      0.47967091	      0.07972379	     -0.20674037	      0.56533754	      0.22258938	     -0.17721196	      0.51833445	      0.22848206	     -0.18315412	      0.48469403	      0.44973959	     -0.21198905	      0.47831180	      0.08294801	     -0.17870926	      0.58855153	      0.05806762	     -0.17473386	      0.25757793	      0.40395924	     -0.40867011	      0.26346455	      0.40131055	     -0.26019571	      0.46306521	      0.55846946	     -0.37834708	      0.41806100	      0.58013047	     -0.38338818	      0.39109942	      0.51200120	     -0.37390494	      0.18401981	      0.04367272	     -0.35252610	      0.20870851	      0.06306546	     -0.27899089	      0.18126345	      0.15112894	     -0.42551122	      0.19045664	      0.16541767	     -0.37966729	      0.26258620	      0.41889480	     -0.34258343	      0.20962532	      0.05560720	     -0.31255670	      0.30352316	      0.02480814	     -0.33660924	      0.34704710	      1.28038963	     -0.25078876	      0.34765415	      1.28295774	     -0.33267676	      0.20639801	      1.32072677	     -0.28937608	      0.33210833	      1.27327258	     -0.30428964	      0.39809201	      1.21194082	     -0.30452601	      0.31051000	      0.77210800	     -0.28539600	      0.29169600	      0.77560300	     -0.20619000	      0.29189100	      0.77509100	     -0.36181800	      0.48073300	      0.42256000	     -0.19291700	      0.25023900	      0.42508300	     -0.32922800	      0.47212000	      0.07447300	     -0.20594300	      0.20400200	      0.05974200	     -0.30796500	      0.42002000	      0.84670000	     -0.28407800	      0.41986500	      0.84710700	     -0.16014100	      0.42017500	      0.84629200	     -0.40801500	      0.17852100	      0.91795800	     -0.24793900	      0.17589700	      0.91964700	     -0.30304500	      0.49214800	      0.43130500	     -0.12287800	      0.24820200	      0.41869700	     -0.40041300	      0.48221700	      0.42141700	     -0.25665000	      0.24404700	      0.42466800	     -0.24787700	      0.46023500	      0.07339700	     -0.16933900	      0.18687500	      0.05983800	     -0.34355800	      0.48551800	      0.08482400	     -0.24133200	      0.19944900	      0.08001900	     -0.26738800	      0.21525800	      1.34006500	     -0.29118700	      0.34322800	      1.27698800	     -0.24940900	      0.34453700	      1.28110300	     -0.33003500	      0.32733100	      1.27339400	     -0.30225300	      0.38204800	      1.20196900	     -0.30401900	      0.55968900	      0.65142300	     -0.14725900	      0.45444900	      0.57745200	     -0.35293800	      0.51667000	      0.64954000	     -0.16167700	      0.41016500	      0.59872200	     -0.36115900	      0.53296200	      0.57385300	     -0.16204100	      0.38188900	      0.53247400	     -0.35315300	      0.56024100	      0.21372100	     -0.16574900	      0.19360500	      0.16161800	     -0.41730500	      0.51999600	      0.22379200	     -0.18175300	      0.19521300	      0.17704600	     -0.37249500	      0.57446400	      0.06073500	     -0.18229300	      0.30212400	      0.04633200	     -0.31965300	      0.00000000	      0.00000000	      0.00000000	      0.68591815	      0.00000000	     -0.19964572	     10.68586259	    720.95816822	     27.52378134	      0.27801318	      0.00000000	     -0.32250250	      0.00000000	      0.00000000	      0.00000000	      0.00000000	     -5.61479687	      0.00000000	      0.31051016	      0.77210820	     -0.28539580	      0.29169640	      0.77560312	     -0.20618996	      0.29189131	      0.77509135	     -0.36181810	      0.48073274	      0.42256030	     -0.19291696	      0.25023872	      0.42508292	     -0.32922810	      0.47212043	      0.07447276	     -0.20594291	      0.20400226	      0.05974188	     -0.30796462	      0.42002013	      0.84669983	     -0.28407806	      0.41986492	      0.84710735	     -0.16014084	      0.42017534	      0.84629238	     -0.40801525	      0.17852095	      0.91795772	     -0.24793872	      0.17589670	      0.91964662	     -0.30304462	      0.49214751	      0.43130550	     -0.12287786	      0.24820153	      0.41869715	     -0.40041322	      0.48221737	      0.42141744	     -0.25664961	      0.24404721	      0.42466816	     -0.24787679	      0.46023476	      0.07339706	     -0.16933933	      0.18687512	      0.05983784	     -0.34355819	      0.48551816	      0.08482397	     -0.24133168	      0.19944885	      0.08001943	     -0.26738834	      0.21525770	      1.34006512	     -0.29118699	      0.34322757	      1.27698803	     -0.24940905	      0.34453666	      1.28110278	     -0.33003476	      0.32733142	      1.27339435	     -0.30225301	      0.38204807	      1.20196867	     -0.30401856	      0.55968940	      0.65142298	     -0.14725898	      0.45444855	      0.57745230	     -0.35293847	      0.51666969	      0.64953989	     -0.16167656	      0.41016489	      0.59872162	     -0.36115897	      0.53296179	      0.57385319	     -0.16204081	      0.38188943	      0.53247350	     -0.35315329	      0.56024086	      0.21372071	     -0.16574852	      0.19360535	      0.16161814	     -0.41730458	      0.51999623	      0.22379221	     -0.18175311	      0.19521286	      0.17704587	     -0.37249461	      0.57446402	      0.06073512	     -0.18229315	      0.30212352	      0.04633209	     -0.31965286
      0.40000000	      0.39824885	      0.83501810	     -0.29096946	     -5.35031961	      0.63529753	      0.46943457	     32.38172793	     -0.64310344	     11.80394858	    -25.62650590	     -0.56518734	     -2.97462108	      5.30533049	     -0.89206047	     -0.80207722	      5.16247708	      7.46623894	     -1.99121860	      5.15445224	      0.00000000	      0.00000000	      0.00000000	      0.00000000	      0.45498446	      0.81693270	     -0.17455251	      0.45180941	      0.81910485	     -0.42044306	      0.41163897	      0.83376530	     -0.29107965	      0.22322327	      0.92656252	     -0.25976984	      0.21814648	      0.92577560	     -0.31477442	      0.32527959	      0.77717978	     -0.21091077	      0.32413677	      0.77907332	     -0.37132344	      0.32470818	      0.77812655	     -0.29111710	      0.51146982	      0.44091573	     -0.15386220	      0.46383313	      0.42743893	     -0.29027524	      0.57841525	      0.64888241	     -0.18777954	      0.53084648	      0.64983983	     -0.19875301	      0.53886176	      0.57243052	     -0.20058838	      0.50374837	      0.07824648	     -0.13131087	      0.50596540	      0.07889566	     -0.20801642	      0.58521654	      0.22566053	     -0.17972141	      0.53786702	      0.22928252	     -0.18464366	      0.49293380	      0.44873337	     -0.21185306	      0.50504980	      0.08196407	     -0.17994986	      0.61613068	      0.06083013	     -0.17852493	      0.26218838	      0.40333526	     -0.40729902	      0.26837691	      0.40066662	     -0.25883726	      0.46912177	      0.55599947	     -0.37746400	      0.42430305	      0.57806289	     -0.38241159	      0.39675128	      0.51018073	     -0.37285283	      0.18370483	      0.04412079	     -0.35087153	      0.20879421	      0.06319686	     -0.27738913	      0.18231077	      0.15157658	     -0.42389601	      0.19178494	      0.16575388	     -0.37807469	      0.26749989	      0.41821770	     -0.34122624	      0.20954631	      0.05571352	     -0.31095345	      0.30324987	      0.02469331	     -0.33547488	      0.35563426	      1.27947371	     -0.25071750	      0.35621795	      1.28179892	     -0.33261292	      0.21494355	      1.31958588	     -0.28938753	      0.34068712	      1.27218601	     -0.30419306	      0.40671878	      1.21090549	     -0.30426453	      0.31901800	      0.77104900	     -0.28449300	      0.30073600	      0.77449100	     -0.20522400	      0.30002900	      0.77413700	     -0.36085100	      0.48956800	      0.42188900	     -0.19413900	      0.25537300	      0.42457100	     -0.32849500	      0.49840500	      0.07312700	     -0.20531700	      0.20416100	      0.06000100	     -0.30721000	      0.42873300	      0.84543900	     -0.28378200	      0.42929800	      0.84572100	     -0.15943700	      0.42816800	      0.84515600	     -0.40812700	      0.18755100	      0.91709200	     -0.24656700	      0.18469100	      0.91882300	     -0.30160200	      0.50212500	      0.43080900	     -0.12431800	      0.25314300	      0.41826700	     -0.39968200	      0.48879700	      0.41962000	     -0.25835300	      0.24762200	      0.42622500	     -0.24450000	      0.48639200	      0.07165100	     -0.16876900	      0.18712000	      0.06031500	     -0.34284400	      0.51107100	      0.08412500	     -0.24071800	      0.19988000	      0.08046500	     -0.26659700	      0.22379400	      1.33873800	     -0.29127600	      0.35163800	      1.27605400	     -0.24878400	      0.35314300	      1.28042900	     -0.32997600	      0.33592700	      1.27236900	     -0.30208000	      0.39085300	      1.20133500	     -0.30379600	      0.56838400	      0.64995100	     -0.15069400	      0.46066100	      0.57566600	     -0.35249800	      0.52519700	      0.64789200	     -0.16475100	      0.41599900	      0.59743300	     -0.36092700	      0.54109200	      0.57236900	     -0.16492100	      0.38608100	      0.52977300	     -0.35160200	      0.58003100	      0.21673300	     -0.16512100	      0.19539500	      0.16183200	     -0.41654700	      0.53963800	      0.22406600	     -0.18081200	      0.19714600	      0.17736600	     -0.37189600	      0.60151200	      0.06305200	     -0.18116900	      0.30222900	      0.04633300	     -0.31945500	      0.00000000	      0.00000000	      0.00000000	      0.68757629	      0.00000000	     -0.19970940	     14.22591963	    733.94637223	     28.11300663	      0.28133765	      0.00000000	     -0.32160754	      0.00000000	      0.00000000	      0.00000000	      0.00000000	     -6.06788672	      0.00000000	      0.31901759	      0.77104867	     -0.28449294	      0.30073613	      0.77449054	     -0.20522402	      0.30002871	      0.77413744	     -0.36085114	      0.48956779	      0.42188919	     -0.19413906	      0.25537330	      0.42457142	     -0.32849494	      0.49840546	      0.07312696	     -0.20531741	      0.20416093	      0.06000131	     -0.30721030	      0.42873323	      0.84543860	     -0.28378236	      0.42929840	      0.84572071	     -0.15943734	      0.42816803	      0.84515643	     -0.40812737	      0.18755072	      0.91709155	     -0.24656653	      0.18469124	      0.91882342	     -0.30160153	      0.50212485	      0.43080902	     -0.12431782	      0.25314349	      0.41826716	     -0.39968154	      0.48879704	      0.41962039	     -0.25835258	      0.24762170	      0.42622522	     -0.24450029	      0.48639244	      0.07165112	     -0.16876937	      0.18712018	      0.06031468	     -0.34284407	      0.51107073	      0.08412518	     -0.24071845	      0.19987971	      0.08046487	     -0.26659736	      0.22379443	      1.33873761	     -0.29127556	      0.35163805	      1.27605402	     -0.24878395	      0.35314277	      1.28042948	     -0.32997623	      0.33592746	      1.27236855	     -0.30207959	      0.39085338	      1.20133507	     -0.30379647	      0.56838423	      0.64995080	     -0.15069437	      0.46066105	      0.57566625	     -0.35249767	      0.52519685	      0.64789158	     -0.16475084	      0.41599852	      0.59743297	     -0.36092737	      0.54109174	      0.57236904	     -0.16492099	      0.38608077	      0.52977282	     -0.35160202	      0.58003068	      0.21673258	     -0.16512080	      0.19539455	      0.16183203	     -0.41654664	      0.53963751	      0.22406581	     -0.18081243	      0.19714564	      0.17736591	     -0.37189627	      0.60151225	      0.06305168	     -0.18116936	      0.30222905	      0.04633312	     -0.31945527
